<?xml version="1.0" standalone="no"?>
<!DOCTYPE svg PUBLIC "-//W3C//DTD SVG 20010904//EN"
 "http://www.w3.org/TR/2001/REC-SVG-20010904/DTD/svg10.dtd">
<svg version="1.0" xmlns="http://www.w3.org/2000/svg"
 width="416.000000pt" height="416.000000pt" viewBox="0 0 416.000000 416.000000"
 preserveAspectRatio="xMidYMid meet">
<metadata>
Created by potrace 1.14, written by Peter Selinger 2001-2017
</metadata>
<g transform="translate(0.000000,416.000000) scale(0.100000,-0.100000)"
fill="#000000" stroke="none">
<path d="M2886 3292 l-39 -17 87 -74 c48 -41 89 -72 91 -69 4 4 -27 105 -50
161 -9 22 -39 21 -89 -1z"/>
<path d="M2566 3181 l-79 -27 87 -77 c47 -42 92 -77 99 -77 21 0 167 51 166
58 0 10 -168 147 -182 149 -6 1 -48 -11 -91 -26z"/>
<path d="M2216 3058 c-44 -16 -81 -30 -83 -31 -1 -2 38 -38 88 -81 l90 -77 79
26 c44 15 82 30 85 34 4 7 -114 112 -165 147 -11 7 -36 3 -94 -18z"/>
<path d="M1855 2933 c-38 -15 -72 -28 -75 -31 -5 -4 44 -50 130 -122 l45 -37
87 31 88 32 -93 77 c-50 42 -96 77 -102 76 -5 0 -41 -12 -80 -26z"/>
<path d="M1490 2805 c-36 -14 -69 -26 -73 -27 -4 -2 34 -39 84 -82 l92 -78 83
28 c46 16 84 32 84 35 0 15 -169 149 -186 148 -11 0 -48 -11 -84 -24z"/>
<path d="M1153 2701 c-34 -3 -63 -8 -65 -11 -20 -30 -26 -50 -18 -55 6 -4 10
-81 10 -189 0 -175 1 -184 20 -189 20 -5 20 -14 20 -682 0 -422 4 -683 10
-695 5 -10 24 -23 41 -29 23 -8 299 -11 926 -11 976 0 941 -2 963 56 6 15 10
292 10 692 0 656 0 667 20 680 18 11 20 23 20 102 0 50 -4 90 -9 90 -5 0 -33
-41 -62 -91 -29 -50 -58 -93 -64 -95 -6 -3 -51 -4 -98 -2 l-87 3 55 95 c30 52
55 98 55 103 0 4 -40 7 -88 7 l-88 0 -59 -101 c-33 -56 -64 -103 -70 -106 -7
-2 -51 -3 -98 -1 l-87 3 55 95 c30 52 55 98 55 103 0 4 -40 7 -88 7 l-88 0
-59 -101 c-33 -56 -64 -103 -70 -106 -7 -2 -51 -3 -98 -1 l-87 3 55 95 c30 52
55 98 55 101 0 4 -40 7 -88 8 l-88 2 -58 -102 c-33 -55 -64 -103 -71 -105 -6
-3 -51 -4 -98 -2 l-87 3 55 95 c30 52 55 98 55 103 0 4 -40 7 -88 7 l-88 0
-60 -102 -59 -103 -5 90 c-5 85 -7 94 -39 134 -24 30 -31 45 -22 50 8 5 2 16
-21 33 -18 14 -51 43 -73 64 -33 33 -84 68 -89 62 0 0 -29 -4 -63 -7z m115
-578 c2 -16 -2 -23 -12 -23 -9 0 -16 -7 -16 -15 0 -8 -4 -15 -10 -15 -5 0 -10
18 -10 41 0 36 2 40 23 37 14 -2 23 -11 25 -25z m68 -15 c1 -42 -3 -46 -22
-20 -13 16 -13 16 -14 0 0 -38 -20 -16 -20 23 0 38 1 40 28 37 24 -3 27 -7 28
-40z m64 28 c6 -8 10 -25 8 -38 -4 -33 -52 -33 -56 0 -7 47 21 69 48 38z m72
-11 c13 -29 -3 -55 -33 -55 -15 0 -19 8 -19 40 0 33 3 40 20 40 12 0 25 -10
32 -25z m43 -36 c6 0 13 15 17 33 6 31 6 31 5 -7 -2 -33 -6 -40 -22 -40 -16 0
-20 7 -22 40 -1 38 -1 38 5 7 4 -18 12 -33 17 -33z m93 42 c3 -9 -2 -11 -17
-6 -18 5 -21 2 -21 -19 0 -27 15 -36 23 -13 2 6 8 9 12 5 11 -11 -4 -28 -25
-28 -25 0 -37 44 -20 66 15 17 41 15 48 -5z m62 9 c0 -5 -4 -10 -10 -10 -5 0
-10 -13 -10 -30 0 -16 -4 -30 -10 -30 -5 0 -10 11 -10 24 0 13 -3 31 -6 40 -5
12 0 16 20 16 14 0 26 -4 26 -10z m17 -52 c-2 -13 -4 -3 -4 22 0 25 2 35 4 23
2 -13 2 -33 0 -45z m68 22 c0 -31 -3 -35 -25 -35 -29 0 -40 36 -19 61 21 26
44 12 44 -26z m43 18 l11 -23 0 23 c2 40 21 23 21 -18 0 -42 -12 -52 -29 -22
-10 16 -10 16 -11 0 0 -10 -4 -18 -10 -18 -5 0 -10 18 -10 40 0 45 11 52 28
18z m890 -55 c-152 -2 -404 -2 -560 0 -156 1 -31 2 277 2 308 0 435 -1 283 -2z
m-1418 -138 c20 -24 4 -65 -25 -65 -22 0 -25 4 -25 40 0 32 4 40 19 40 10 0
24 -7 31 -15z m27 -47 c-2 -13 -4 -3 -4 22 0 25 2 35 4 23 2 -13 2 -33 0 -45z
m69 20 c1 -42 -3 -46 -22 -20 -13 16 -13 16 -14 0 0 -33 -20 -18 -20 15 0 40
7 49 35 45 16 -2 20 -11 21 -40z m64 32 c0 -5 -10 -11 -22 -11 l-23 -2 23 -4
c12 -2 22 -8 22 -13 0 -5 -10 -10 -22 -13 -23 -4 -23 -4 2 -15 l25 -11 -27 0
c-26 -1 -28 2 -28 39 0 36 3 40 25 40 14 0 25 -4 25 -10z m58 -8 c2 -7 -2 -10
-12 -6 -20 8 -33 -23 -17 -39 9 -9 14 -8 21 3 8 13 10 12 10 -3 0 -28 -44 -18
-48 11 -6 39 34 69 46 34z m58 2 c-3 -9 -6 -27 -6 -40 0 -13 -4 -24 -10 -24
-5 0 -10 14 -10 30 0 17 -4 30 -10 30 -5 0 -10 5 -10 10 0 6 12 10 26 10 20 0
25 -4 20 -16z m69 -24 c0 -31 -3 -35 -25 -35 -29 0 -40 36 -19 61 21 26 44 12
44 -26z m71 -2 c1 -42 -3 -46 -22 -20 -13 16 -13 16 -14 0 0 -33 -20 -18 -20
15 0 40 7 49 35 45 16 -2 20 -11 21 -40z m967 -35 c-172 -2 -454 -2 -626 0
-171 1 -31 2 313 2 344 0 484 -1 313 -2z m-1389 -129 c23 -9 20 -26 -4 -19
-16 5 -20 2 -20 -19 0 -29 9 -33 29 -13 11 10 13 9 9 -3 -3 -8 -14 -16 -26
-18 -26 -4 -41 40 -22 63 14 17 13 17 34 9z m71 -31 c15 -36 12 -60 -5 -33 -7
11 -11 11 -24 1 -9 -8 -16 -9 -16 -4 0 14 21 73 26 73 2 0 11 -16 19 -37z m48
15 l4 -23 8 23 c12 36 25 25 24 -20 -1 -37 -2 -39 -9 -18 -8 24 -8 24 -9 3 -1
-27 -21 -31 -22 -5 0 14 -2 14 -9 -3 -7 -15 -9 -10 -9 23 -1 44 14 58 22 20z
m97 12 c0 -5 -8 -11 -17 -11 -17 -1 -17 -2 0 -6 21 -5 23 -23 2 -23 -21 0 -19
-18 3 -23 10 -3 6 -5 -10 -6 -25 -1 -28 2 -28 32 0 19 3 37 7 40 10 11 43 8
43 -3z m59 1 c8 -5 11 -16 7 -26 -14 -37 9 -37 25 1 l17 39 17 -39 c16 -38 12
-64 -5 -36 -7 12 -12 12 -22 2 -17 -17 -39 -15 -54 6 -13 16 -13 16 -14 0 0
-33 -20 -18 -20 15 0 46 16 59 49 38z m1099 -68 c-179 -2 -476 -2 -660 0 -183
1 -36 2 327 2 363 0 513 -1 333 -2z m320 -78 c-3 -3 -262 -5 -576 -5 l-572 0
0 -235 0 -235 578 -3 c317 -1 183 -2 -298 -2 -481 0 -743 1 -582 2 l292 3 0
235 0 235 -292 3 c-161 1 100 3 581 5 481 1 872 0 869 -3z m-1552 -56 c4 -8
-1 -9 -16 -4 -15 5 -20 4 -16 -4 4 -6 14 -11 22 -11 17 0 19 -36 2 -42 -16 -6
-38 1 -38 12 0 4 10 6 23 4 l22 -5 -22 17 c-13 9 -23 23 -23 30 0 17 36 19 46
3z m69 1 c4 -6 -4 -9 -17 -7 -17 1 -23 -3 -23 -18 0 -15 6 -19 25 -17 23 2 24
2 8 -14 -14 -14 -20 -15 -32 -4 -16 13 -22 51 -9 63 10 10 41 8 48 -3z m48 3
c-13 -2 -23 -9 -23 -14 0 -5 10 -10 23 -10 l22 -2 -22 -4 c-13 -2 -23 -8 -23
-13 0 -5 10 -11 23 -13 19 -4 18 -4 -5 -6 -26 -1 -28 2 -28 34 0 32 2 35 28
34 23 -2 24 -2 5 -6z m53 -15 l8 -23 7 25 c5 20 7 16 8 -20 0 -42 -1 -44 -14
-26 -8 11 -15 25 -16 30 -1 6 -5 0 -9 -14 -7 -22 -8 -21 -9 13 -1 41 13 50 25
15z m77 15 c-27 -5 -31 -22 -5 -24 16 -1 16 -2 0 -6 -25 -6 -22 -21 5 -26 19
-4 18 -4 -5 -6 -26 -1 -28 2 -28 34 0 32 2 35 28 34 23 -2 24 -2 5 -6z m370 0
c-7 -2 -13 -18 -13 -34 0 -16 -4 -29 -10 -29 -5 0 -10 13 -10 29 0 16 -6 32
-12 34 -7 3 3 5 22 5 19 0 29 -2 23 -5z m47 -19 c14 -36 13 -39 -19 -40 -28
-1 -28 0 -18 33 12 40 24 42 37 7z m40 14 c0 -9 3 -9 12 0 17 17 33 15 19 -2
-9 -11 -9 -20 -2 -35 17 -32 12 -38 -9 -11 -16 20 -20 22 -20 8 0 -10 -4 -18
-10 -18 -5 0 -10 16 -10 35 0 19 5 35 10 35 6 0 10 -5 10 -12z m83 5 c-13 -2
-23 -9 -23 -14 0 -5 10 -10 23 -10 l22 -2 -22 -4 c-13 -2 -23 -8 -23 -13 0 -5
10 -11 23 -13 19 -4 18 -4 -5 -6 -26 -1 -28 2 -28 34 0 32 2 35 28 34 23 -2
24 -2 5 -6z m405 -28 c-1 -33 -2 -34 -19 -19 -16 14 -18 14 -22 -3 -3 -10 -5
-1 -6 20 -1 33 2 37 24 37 22 0 24 -4 23 -35z m77 16 c12 -40 -22 -72 -50 -45
-17 17 -18 25 -9 48 9 22 51 20 59 -3z m43 -44 c12 -3 10 -5 -5 -6 -20 -1 -23
3 -21 37 1 36 1 36 5 5 3 -19 11 -34 21 -36z m42 34 c0 -20 6 -31 18 -34 10
-3 6 -5 -10 -6 -25 -1 -28 2 -28 34 0 19 5 35 10 35 6 0 10 -13 10 -29z
m-1486 -503 c14 -23 -3 -52 -33 -56 -19 -3 -21 1 -21 38 0 37 2 41 21 38 12
-2 27 -11 33 -20z m64 -25 c7 -20 7 -33 1 -33 -5 0 -9 5 -9 10 0 6 -7 10 -15
10 -8 0 -15 -4 -15 -10 0 -5 -4 -10 -10 -10 -5 0 -7 6 -5 13 28 78 33 80 53
20z m112 37 c0 -5 -8 -11 -17 -11 -17 -1 -17 -2 0 -6 21 -5 23 -23 2 -23 -8 0
-15 -4 -15 -10 0 -5 7 -7 15 -4 8 4 15 1 15 -5 0 -6 -11 -11 -25 -11 -22 0
-25 4 -25 36 0 21 -4 33 -10 29 -5 -3 -10 -19 -10 -36 0 -16 -4 -29 -10 -29
-5 0 -10 13 -10 28 0 15 -5 33 -12 40 -9 9 1 12 45 12 31 0 57 -4 57 -10z
m1143 -67 c-205 -2 -541 -2 -745 0 -205 1 -38 2 372 2 410 0 577 -1 373 -2z"/>
<path d="M1240 2119 c0 -5 5 -7 10 -4 6 3 10 8 10 11 0 2 -4 4 -10 4 -5 0 -10
-5 -10 -11z"/>
<path d="M1300 2119 c0 -5 5 -7 10 -4 6 3 10 8 10 11 0 2 -4 4 -10 4 -5 0 -10
-5 -10 -11z"/>
<path d="M1360 2111 c0 -25 19 -38 31 -20 12 19 6 33 -14 37 -11 2 -17 -3 -17
-17z"/>
<path d="M1435 2108 c1 -13 6 -23 11 -23 5 0 10 10 12 23 2 14 -2 22 -11 22
-8 0 -13 -9 -12 -22z"/>
<path d="M1716 2121 c-9 -14 5 -42 18 -38 18 6 20 47 2 47 -8 0 -17 -4 -20 -9z"/>
<path d="M1240 1904 c0 -14 4 -23 10 -19 6 3 10 15 10 26 0 10 -4 19 -10 19
-5 0 -10 -12 -10 -26z"/>
<path d="M1330 1920 c0 -5 5 -10 10 -10 6 0 10 5 10 10 0 6 -4 10 -10 10 -5 0
-10 -4 -10 -10z"/>
<path d="M1576 1921 c-9 -14 5 -42 18 -38 18 6 20 47 2 47 -8 0 -17 -4 -20 -9z"/>
<path d="M1650 1920 c0 -5 5 -10 10 -10 6 0 10 5 10 10 0 6 -4 10 -10 10 -5 0
-10 -4 -10 -10z"/>
<path d="M1510 1720 c0 -5 5 -10 10 -10 6 0 10 5 10 10 0 6 -4 10 -10 10 -5 0
-10 -4 -10 -10z"/>
<path d="M2560 1530 c0 -5 7 -10 15 -10 8 0 15 5 15 10 0 6 -7 10 -15 10 -8 0
-15 -4 -15 -10z"/>
<path d="M2630 1515 c0 -16 6 -25 15 -25 9 0 15 9 15 25 0 16 -6 25 -15 25 -9
0 -15 -9 -15 -25z"/>
<path d="M1240 994 c0 -14 4 -23 10 -19 6 3 10 15 10 26 0 10 -4 19 -10 19 -5
0 -10 -12 -10 -26z"/>
</g>
</svg>
